<?xml version="1.0" encoding="UTF-8"?>
<svg viewBox="0 0 60 60" xmlns="http://www.w3.org/2000/svg">
 <path transform="translate(.71978,.35989)" d="m43.187 46.684v-39.948" fill="none" stroke="#333" stroke-linecap="round" stroke-linejoin="round" stroke-width="5"/>
 <path transform="matrix(2.7241 0 0 2.7241 -2.5857 -12.84)" d="m3.87431,13.06822 1.875-5.09766c.16797-.44922.30664-.78125.41602-.99609 .10938-.21875.25977-.40234.45117-.55078s.44141-.22852.75-.22852c.31641,0 .57227.07617.76758.22852s.35547.34375.46875.57422c.11719.22656.25391.55078.41016.97266l1.86914,5.09766c.11719.30859.19336.54688.22852.71484 .03906.16406.05859.33008.05859.49805 0,.24219-.08594.4375-.25781.58594-.16797.14453-.39258.2168-.67383.2168-.19531,0-.35937-.03906-.49219-.11719s-.24023-.1875-.32227-.32813-.14844-.3125-.21094-.51563l-.23438-.76758h-3.19336l-.24023.76758c-.10156.31641-.22461.55664-.36914.7207s-.35742.24023-.65039.24023c-.27734,0-.50391-.07227-.67969-.2168-.17188-.14844-.25781-.34375-.25781-.58594 0-.14453.01563-.29492.04688-.45117 .03516-.16016.11523-.41406.24023-.76172zm4.52344-1.53516-.97266-3.1582h-.02344l-1.04297,3.1582h2.03906z" fill="#333"/>
 <path transform="matrix(2.7241 0 0 2.7241 -32.817 -59.626)" d="m17.49436,40.90293h3.16406c.33203,0 .58594.08203.76172.24609s.26953.38086.26953.66211-.08789.50391-.26367.66797-.43164.24609-.76758.24609h-4.30664c-.48828,0-.83984-.0918-1.05469-.27539-.21094-.1875-.31641-.45508-.31641-.80273 0-.14844.02344-.27539.07031-.38086s.14453-.27148.29297-.48633l3.67383-4.94531h-2.87109c-.32813,0-.58203-.07813-.76172-.23438s-.26953-.36523-.26953-.62695c0-.17188.03906-.32422.11719-.45703s.19531-.23633.35156-.31055 .34766-.11133.5625-.11133h4.17773c.3125,0 .55859.05469.73828.16406s.29883.23242.35742.38086c.0625.14453.09375.29102.09375.43945 0,.125-.03516.26563-.10547.42188s-.16602.32227-.28711.49805-.29492.41797-.52148.72656l-3.10547,4.17773z" fill="#7f7f7f"/>
 <path transform="matrix(-2.5885e-17 -1 1 -2.5885e-17 36.451 71.157)" d="m28.413-2.3411-12.919 9.2812 12.611 10.312 0.30865-19.594z" fill="#b3b3b3" fill-rule="evenodd" stroke="#333" stroke-linecap="round" stroke-linejoin="round" stroke-width="3.712"/>
</svg>
